<svg xmlns="http://www.w3.org/2000/svg" viewBox="0 0 2394 3840"><defs><style>.cls-1{fill:#c1272d;}.cls-2{fill:#fff;}</style></defs><title>logo_and_back</title><g id="Layer_1" data-name="Layer 1"><polygon class="cls-1" points="1816 1816 2000 2001 2000 3840 0 3840 0 0 1816 1816"/><path class="cls-2" d="M733.38,19.59l-.71-.71L547.8,203.76l-185-184.88-.35-.35L177.27,203.83-7.67,18.88l-.71.71L176.53,204.5-8.38,389.41l.71.71L177.2,205.24l185,184.88.35.35,185.16-185.3,184.94,185,.71-.71L548.47,204.5ZM362.43,20l92,91.92L269.87,296.42,178,204.57ZM270.58,297.13,455.13,112.58l91.92,91.85L362.57,389.05Z" transform="translate(1638 1611)"/><path class="cls-2" d="M362.58,413.1l-11.67-11.67L177.21,227.87-7.67,412.74-31,389.41,153.9,204.5-31,19.6-7.67-3.75l184.94,185L362.42-4.1,374.09,7.57l173.7,173.56L732.67-3.75,756,19.6,571.1,204.5,756,389.41l-23.33,23.33L547.73,227.8Zm-69.37-116,69.35,69.3,161.87-162L455.14,135.2Zm-92.64-92.57,69.29,69.24L431.79,111.87l-69.35-69.3Z" transform="translate(1638 1611)"/></g></svg>