<svg id="Layer_1" data-name="Layer 1" xmlns="http://www.w3.org/2000/svg" viewBox="0 0 787.01 417.2"><defs><style>.cls-1{fill:none;stroke:#000;stroke-miterlimit:10;}</style></defs><title>logo_expand</title><path class="cls-1" d="M117.5,236.5" transform="translate(0 0.1)"/><path class="cls-1" d="M379.5,236.5" transform="translate(0 0.1)"/><path class="cls-1" d="M117.5,236.5" transform="translate(0 0.1)"/><path d="M764.38,23.59l-.71-.71L578.8,207.76l-185-184.88-.35-.35L208.27,207.83,23.33,22.88l-.71.71L207.53,208.5,22.62,393.41l.71.71L208.2,209.24l185,184.88.35.35,185.16-185.3,184.94,185,.71-.71L579.47,208.5ZM393.43,24l92,91.92L300.87,300.42,209,208.57ZM301.58,301.13,486.13,116.58l91.92,91.85L393.57,393.05Z" transform="translate(0 0.1)"/><path d="M393.58,417.1l-11.67-11.67L208.21,231.87,23.33,416.74,0,393.41,184.9,208.5,0,23.6,23.33.25l184.94,185L393.42-.1l11.67,11.67,173.7,173.56L763.67.25,787,23.6,602.1,208.5,787,393.41l-23.33,23.33L578.73,231.8Zm-69.37-116,69.35,69.3,161.87-162L486.14,139.2Zm-92.64-92.57,69.29,69.24L462.79,115.87l-69.35-69.3Z" transform="translate(0 0.1)"/></svg>